<svg id="Layer_1" data-name="Layer 1" xmlns="http://www.w3.org/2000/svg" viewBox="0 0 31 42"><defs><style>.cls-1{opacity:0.2;}.cls-2{fill:#fdfdfe;}.cls-3{fill:none;stroke:#666;stroke-width:2px;}.cls-4{fill:#666;}</style></defs><title>Untitled-4</title><g id="Group_5" data-name="Group 5" class="cls-1"><g id="Ellipse_2" data-name="Ellipse 2"><ellipse class="cls-2" cx="15.5" cy="21" rx="15.5" ry="21"/><ellipse class="cls-3" cx="15.5" cy="21" rx="14.5" ry="20"/></g><g id="Path_39" data-name="Path 39"><path class="cls-2" d="M21.56,16.1c-2,.83-4.63-.79-5.77-3.6s-.4-5.77,1.65-6.6,4.63.79,5.77,3.6S23.61,15.27,21.56,16.1Z"/><path class="cls-4" d="M17.63,6.36a3,3,0,0,0-1.7,2.16,6.05,6.05,0,0,0,.32,3.79,6.08,6.08,0,0,0,2.41,3,3,3,0,0,0,2.71.37,3,3,0,0,0,1.7-2.15,6.15,6.15,0,0,0-.32-3.8,6.08,6.08,0,0,0-2.41-3,3,3,0,0,0-2.71-.37m-.38-.92c2.31-.93,5.18.8,6.42,3.87s.38,6.32-1.92,7.25-5.18-.8-6.42-3.87S15,6.37,17.25,5.44Z"/></g></g></svg>