<svg id="Layer_1" data-name="Layer 1" xmlns="http://www.w3.org/2000/svg" viewBox="0 0 35.29 48.38"><defs><style>.cls-1{fill:#666;opacity:0.2;isolation:isolate;}</style></defs><title>Untitled-4</title><path id="Path_6" data-name="Path 6" class="cls-1" d="M19.87,48.38H15.63a2.85,2.85,0,0,0-.63-.25,17.17,17.17,0,0,1-9.94-5.21C-.41,37.16-.84,30.29.93,23a16.87,16.87,0,0,1,4.39-7.66c.9,7.34,1.64,9.25,4.3,11C7.37,15.43,9.16,6.14,19.4,0A26,26,0,0,0,19,4.23c.23,3.74,2.62,6.22,5.37,8.4,1.5,1.2,3.15,2.24,4.59,3.51A18.58,18.58,0,0,1,27.61,45.2,22.33,22.33,0,0,1,19.87,48.38ZM21.74,18c4.52,7.55,3.12,15.66-3.31,19,1.1-2.55,1.8-5,1.18-7.75A13.39,13.39,0,0,1,8.69,38.64c3.13,3.86,9,5.27,13.86,3.43a12.86,12.86,0,0,0,8.28-12.43A12.69,12.69,0,0,0,21.74,18Z"/></svg>