<svg id="Layer_1" data-name="Layer 1" xmlns="http://www.w3.org/2000/svg" viewBox="0 0 33.06 29.13"><defs><style>.cls-1{fill:#d9e1e4;}</style></defs><title>Untitled-4</title><g id="Group_33" data-name="Group 33"><g id="Group_34" data-name="Group 34"><path id="Path_40" data-name="Path 40" class="cls-1" d="M3.94,26.37A2.22,2.22,0,0,1,4.7,24.7c1.08-1,2.18-2,3.28-2.94l11.59-10.3c.32-.28.35-.41.13-.77a3.74,3.74,0,0,1,.6-4.79c.93-.9,1.9-1.74,2.91-2.54,1.19-1,2.39-2,3.59-2.94a2.7,2.7,0,0,1,.4-.29.71.71,0,0,1,1,.17.73.73,0,0,1,0,1,2.73,2.73,0,0,1-.23.25L23.23,6.29a.85.85,0,0,0-.1,1.19.88.88,0,0,0,.43.27.75.75,0,0,0,.72-.12c.11-.1.22-.19.32-.3l4.71-4.7a.77.77,0,0,1,1.08-.14.79.79,0,0,1,.21.24.72.72,0,0,1,0,.86,2.68,2.68,0,0,1-.28.3C28.73,5.46,27.17,7,25.62,8.59c-.47.46-.48.85-.07,1.28a.77.77,0,0,0,1.09.09l0,0c.16-.14.3-.29.45-.43L31.59,5a.79.79,0,0,1,1.1-.2.92.92,0,0,1,.22.22.74.74,0,0,1-.09,1c-.42.53-.84,1-1.27,1.56-1.3,1.58-2.58,3.17-3.91,4.72a4.36,4.36,0,0,1-3,1.63,3.75,3.75,0,0,1-2.22-.52c-.49-.28-.53-.28-.91.14l-13,14.56a4.7,4.7,0,0,1-.66.6A1.79,1.79,0,0,1,6.1,29,3.46,3.46,0,0,1,4,26.68C4,26.57,4,26.47,3.94,26.37Z"/><path id="Path_41" data-name="Path 41" class="cls-1" d="M15.41,13.49,13,15.64a1.88,1.88,0,0,1-.2-.19c-.55-.61-1.09-1.21-1.63-1.83a.54.54,0,0,0-.66-.16,6.19,6.19,0,0,1-5.72-.57A9.5,9.5,0,0,1,.26,7,5.43,5.43,0,0,1,.81,2.51a4.37,4.37,0,0,1,3.08-2A7.35,7.35,0,0,1,9.05,1.71a9.49,9.49,0,0,1,3.88,4.36,6,6,0,0,1,.15,4.78.63.63,0,0,0,.2.8c.62.53,1.23,1.09,1.85,1.64A2.83,2.83,0,0,0,15.41,13.49Z"/><path id="Path_42" data-name="Path 42" class="cls-1" d="M19.76,17.41l2.48,2.2,5.5,4.9a5.33,5.33,0,0,1,.46.49,1.89,1.89,0,0,1,.31,2.09,3.59,3.59,0,0,1-1.78,1.82,2,2,0,0,1-2.49-.59c-1.36-1.51-2.7-3-4-4.55-1-1.07-1.9-2.15-2.86-3.22-.1-.11-.2-.2,0-.36Z"/></g></g></svg>